<svg width="212" height="46" viewBox="0 0 212 46" fill="none" xmlns="http://www.w3.org/2000/svg">
<rect x="0.5" y="0.5" width="211" height="45" rx="3.5" stroke="#406181"/>
<path d="M16.9453 28H11.374V18.0059H16.9453V19.0381H12.5361V22.2578H16.6787V23.2832H12.5361V26.9609H16.9453V28ZM24.123 28V23.1533C24.123 22.5426 23.984 22.0869 23.7061 21.7861C23.4281 21.4854 22.9928 21.335 22.4004 21.335C21.6165 21.335 21.0423 21.5469 20.6777 21.9707C20.3132 22.3945 20.1309 23.0941 20.1309 24.0693V28H18.9961V20.5078H19.9189L20.1035 21.5332H20.1582C20.3906 21.1641 20.7165 20.8792 21.1357 20.6787C21.555 20.4736 22.0221 20.3711 22.5371 20.3711C23.4395 20.3711 24.1185 20.5898 24.5742 21.0273C25.0299 21.4603 25.2578 22.1553 25.2578 23.1123V28H24.123ZM30.0156 27.2002C30.2161 27.2002 30.4098 27.1865 30.5967 27.1592C30.7835 27.1273 30.9316 27.0954 31.041 27.0635V27.9316C30.918 27.9909 30.7357 28.0387 30.4941 28.0752C30.2572 28.1162 30.043 28.1367 29.8516 28.1367C28.4023 28.1367 27.6777 27.3734 27.6777 25.8467V21.3896H26.6045V20.8428L27.6777 20.3711L28.1562 18.7715H28.8125V20.5078H30.9863V21.3896H28.8125V25.7988C28.8125 26.25 28.9196 26.5964 29.1338 26.8379C29.348 27.0794 29.6419 27.2002 30.0156 27.2002ZM35.71 28.1367C34.6025 28.1367 33.7275 27.7995 33.085 27.125C32.4469 26.4505 32.1279 25.514 32.1279 24.3154C32.1279 23.1077 32.4242 22.1484 33.0166 21.4375C33.6136 20.7266 34.4134 20.3711 35.416 20.3711C36.3548 20.3711 37.0977 20.681 37.6445 21.3008C38.1914 21.916 38.4648 22.7295 38.4648 23.7412V24.459H33.3037C33.3265 25.3385 33.5475 26.0062 33.9668 26.4619C34.3906 26.9176 34.9854 27.1455 35.751 27.1455C36.5576 27.1455 37.3551 26.9769 38.1436 26.6396V27.6514C37.7425 27.8245 37.362 27.9476 37.002 28.0205C36.6465 28.098 36.2158 28.1367 35.71 28.1367ZM35.4023 21.3213C34.8008 21.3213 34.32 21.5173 33.96 21.9092C33.6045 22.3011 33.3949 22.8434 33.3311 23.5361H37.248C37.248 22.8206 37.0885 22.2738 36.7695 21.8955C36.4505 21.5127 35.9948 21.3213 35.4023 21.3213ZM43.8242 20.3711C44.1569 20.3711 44.4554 20.3984 44.7197 20.4531L44.5625 21.5059C44.2526 21.4375 43.9792 21.4033 43.7422 21.4033C43.1361 21.4033 42.6165 21.6494 42.1836 22.1416C41.7552 22.6338 41.541 23.2467 41.541 23.9805V28H40.4062V20.5078H41.3428L41.4727 21.8955H41.5273C41.8053 21.4079 42.1403 21.0319 42.5322 20.7676C42.9242 20.5033 43.3548 20.3711 43.8242 20.3711ZM48.5684 20.5078H49.7852L51.4258 24.7803C51.7858 25.7555 52.0091 26.4596 52.0957 26.8926H52.1504C52.2096 26.6602 52.3327 26.2637 52.5195 25.7031C52.7109 25.138 53.3307 23.4062 54.3789 20.5078H55.5957L52.376 29.0391C52.057 29.8822 51.6833 30.4792 51.2549 30.8301C50.8311 31.1855 50.3092 31.3633 49.6895 31.3633C49.3431 31.3633 49.0013 31.3245 48.6641 31.2471V30.3379C48.9147 30.3926 49.195 30.4199 49.5049 30.4199C50.2842 30.4199 50.8402 29.9824 51.1729 29.1074L51.5898 28.041L48.5684 20.5078ZM63.2793 24.2471C63.2793 25.4684 62.9717 26.4232 62.3564 27.1113C61.7412 27.7949 60.8913 28.1367 59.8066 28.1367C59.1367 28.1367 58.542 27.9795 58.0225 27.665C57.5029 27.3506 57.1019 26.8994 56.8193 26.3115C56.5368 25.7236 56.3955 25.0355 56.3955 24.2471C56.3955 23.0257 56.7008 22.0755 57.3115 21.3965C57.9222 20.7129 58.7699 20.3711 59.8545 20.3711C60.9027 20.3711 61.7344 20.7197 62.3496 21.417C62.9694 22.1143 63.2793 23.0576 63.2793 24.2471ZM57.5713 24.2471C57.5713 25.2041 57.7627 25.9333 58.1455 26.4346C58.5283 26.9359 59.0911 27.1865 59.834 27.1865C60.5768 27.1865 61.1396 26.9382 61.5225 26.4414C61.9098 25.9401 62.1035 25.2087 62.1035 24.2471C62.1035 23.2946 61.9098 22.5723 61.5225 22.0801C61.1396 21.5833 60.5723 21.335 59.8203 21.335C59.0775 21.335 58.5169 21.5788 58.1387 22.0664C57.7604 22.554 57.5713 23.2809 57.5713 24.2471ZM66.3418 20.5078V25.3682C66.3418 25.9788 66.4808 26.4346 66.7588 26.7354C67.0368 27.0361 67.472 27.1865 68.0645 27.1865C68.8483 27.1865 69.4202 26.9723 69.7803 26.5439C70.1449 26.1156 70.3271 25.416 70.3271 24.4453V20.5078H71.4619V28H70.5254L70.3613 26.9951H70.2998C70.0674 27.3643 69.7438 27.6468 69.3291 27.8428C68.9189 28.0387 68.4495 28.1367 67.9209 28.1367C67.0094 28.1367 66.3258 27.9202 65.8701 27.4873C65.4189 27.0544 65.1934 26.3617 65.1934 25.4092V20.5078H66.3418ZM77.293 20.3711C77.6257 20.3711 77.9242 20.3984 78.1885 20.4531L78.0312 21.5059C77.7214 21.4375 77.4479 21.4033 77.2109 21.4033C76.6048 21.4033 76.0853 21.6494 75.6523 22.1416C75.224 22.6338 75.0098 23.2467 75.0098 23.9805V28H73.875V20.5078H74.8115L74.9414 21.8955H74.9961C75.2741 21.4079 75.609 21.0319 76.001 20.7676C76.3929 20.5033 76.8236 20.3711 77.293 20.3711ZM86.3916 28.1367C85.2842 28.1367 84.4092 27.7995 83.7666 27.125C83.1286 26.4505 82.8096 25.514 82.8096 24.3154C82.8096 23.1077 83.1058 22.1484 83.6982 21.4375C84.2952 20.7266 85.0951 20.3711 86.0977 20.3711C87.0365 20.3711 87.7793 20.681 88.3262 21.3008C88.873 21.916 89.1465 22.7295 89.1465 23.7412V24.459H83.9854C84.0081 25.3385 84.2292 26.0062 84.6484 26.4619C85.0723 26.9176 85.667 27.1455 86.4326 27.1455C87.2393 27.1455 88.0368 26.9769 88.8252 26.6396V27.6514C88.4242 27.8245 88.0436 27.9476 87.6836 28.0205C87.3281 28.098 86.8975 28.1367 86.3916 28.1367ZM86.084 21.3213C85.4824 21.3213 85.0016 21.5173 84.6416 21.9092C84.2861 22.3011 84.0765 22.8434 84.0127 23.5361H87.9297C87.9297 22.8206 87.7702 22.2738 87.4512 21.8955C87.1322 21.5127 86.6764 21.3213 86.084 21.3213ZM100.638 28V23.126C100.638 22.529 100.51 22.0824 100.255 21.7861C99.9997 21.4854 99.6032 21.335 99.0654 21.335C98.359 21.335 97.8372 21.5378 97.5 21.9434C97.1628 22.349 96.9941 22.9733 96.9941 23.8164V28H95.8594V23.126C95.8594 22.529 95.7318 22.0824 95.4766 21.7861C95.2214 21.4854 94.8226 21.335 94.2803 21.335C93.5693 21.335 93.0475 21.5492 92.7148 21.9775C92.3867 22.4014 92.2227 23.0986 92.2227 24.0693V28H91.0879V20.5078H92.0107L92.1953 21.5332H92.25C92.4642 21.1686 92.765 20.8838 93.1523 20.6787C93.5443 20.4736 93.9818 20.3711 94.4648 20.3711C95.6361 20.3711 96.4017 20.7949 96.7617 21.6426H96.8164C97.0397 21.2507 97.3633 20.9408 97.7871 20.7129C98.2109 20.485 98.694 20.3711 99.2363 20.3711C100.084 20.3711 100.717 20.5898 101.137 21.0273C101.561 21.4603 101.772 22.1553 101.772 23.1123V28H100.638ZM108.725 28L108.499 26.9336H108.444C108.071 27.403 107.697 27.722 107.323 27.8906C106.954 28.0547 106.492 28.1367 105.936 28.1367C105.193 28.1367 104.609 27.9453 104.186 27.5625C103.766 27.1797 103.557 26.6351 103.557 25.9287C103.557 24.4157 104.767 23.6227 107.187 23.5498L108.458 23.5088V23.0439C108.458 22.4561 108.33 22.0231 108.075 21.7451C107.825 21.4626 107.421 21.3213 106.865 21.3213C106.241 21.3213 105.535 21.5127 104.746 21.8955L104.397 21.0273C104.767 20.8268 105.17 20.6696 105.607 20.5557C106.049 20.4417 106.492 20.3848 106.934 20.3848C107.827 20.3848 108.488 20.583 108.916 20.9795C109.349 21.376 109.565 22.0117 109.565 22.8867V28H108.725ZM106.161 27.2002C106.868 27.2002 107.421 27.0065 107.822 26.6191C108.228 26.2318 108.431 25.6895 108.431 24.9922V24.3154L107.296 24.3633C106.394 24.3952 105.742 24.5365 105.341 24.7871C104.944 25.0332 104.746 25.4183 104.746 25.9424C104.746 26.3525 104.869 26.6647 105.115 26.8789C105.366 27.0931 105.715 27.2002 106.161 27.2002ZM113.045 28H111.91V20.5078H113.045V28ZM111.814 18.4775C111.814 18.2178 111.878 18.0286 112.006 17.9102C112.133 17.7871 112.293 17.7256 112.484 17.7256C112.667 17.7256 112.824 17.7871 112.956 17.9102C113.088 18.0332 113.154 18.2223 113.154 18.4775C113.154 18.7327 113.088 18.9242 112.956 19.0518C112.824 19.1748 112.667 19.2363 112.484 19.2363C112.293 19.2363 112.133 19.1748 112.006 19.0518C111.878 18.9242 111.814 18.7327 111.814 18.4775ZM116.586 28H115.451V17.3633H116.586V28ZM118.828 27.2754C118.828 26.9701 118.896 26.7399 119.033 26.585C119.174 26.4255 119.375 26.3457 119.635 26.3457C119.899 26.3457 120.104 26.4255 120.25 26.585C120.4 26.7399 120.476 26.9701 120.476 27.2754C120.476 27.5716 120.4 27.7995 120.25 27.959C120.1 28.1185 119.895 28.1982 119.635 28.1982C119.402 28.1982 119.209 28.1276 119.054 27.9863C118.903 27.8405 118.828 27.6035 118.828 27.2754ZM122.561 27.2754C122.561 26.9701 122.629 26.7399 122.766 26.585C122.907 26.4255 123.107 26.3457 123.367 26.3457C123.632 26.3457 123.837 26.4255 123.982 26.585C124.133 26.7399 124.208 26.9701 124.208 27.2754C124.208 27.5716 124.133 27.7995 123.982 27.959C123.832 28.1185 123.627 28.1982 123.367 28.1982C123.135 28.1982 122.941 28.1276 122.786 27.9863C122.636 27.8405 122.561 27.6035 122.561 27.2754ZM126.293 27.2754C126.293 26.9701 126.361 26.7399 126.498 26.585C126.639 26.4255 126.84 26.3457 127.1 26.3457C127.364 26.3457 127.569 26.4255 127.715 26.585C127.865 26.7399 127.94 26.9701 127.94 27.2754C127.94 27.5716 127.865 27.7995 127.715 27.959C127.564 28.1185 127.359 28.1982 127.1 28.1982C126.867 28.1982 126.674 28.1276 126.519 27.9863C126.368 27.8405 126.293 27.6035 126.293 27.2754Z" fill="#9CA8B1"/>
</svg>
